<mxfile host="Electron" modified="2023-09-28T19:04:19.757Z" agent="Mozilla/5.0 (Windows NT 10.0; Win64; x64) AppleWebKit/537.36 (KHTML, like Gecko) draw.io/21.6.8 Chrome/114.0.5735.289 Electron/25.5.0 Safari/537.36" etag="fKeihJZTD1haybMLv1wh" version="21.6.8" type="device">
  <diagram name="Page-1" id="b5b7bab2-c9e2-2cf4-8b2a-24fd1a2a6d21">
    <mxGraphModel dx="2046" dy="1891" grid="1" gridSize="10" guides="1" tooltips="1" connect="1" arrows="1" fold="1" page="1" pageScale="1" pageWidth="827" pageHeight="1169" background="none" math="0" shadow="0">
      <root>
        <mxCell id="0" />
        <mxCell id="1" parent="0" />
        <mxCell id="6e0c8c40b5770093-72" value="" style="shape=folder;fontStyle=1;spacingTop=10;tabWidth=194;tabHeight=22;tabPosition=left;html=1;rounded=0;shadow=0;comic=0;labelBackgroundColor=none;strokeWidth=1;fillColor=none;fontFamily=Verdana;fontSize=10;align=center;" parent="1" vertex="1">
          <mxGeometry x="-296.5" y="-38.25" width="1427.5" height="1014.5" as="geometry" />
        </mxCell>
        <mxCell id="6e0c8c40b5770093-67" style="edgeStyle=none;rounded=0;html=1;entryX=0.43;entryY=0.173;entryPerimeter=0;dashed=1;labelBackgroundColor=none;startFill=0;endArrow=open;endFill=0;endSize=10;fontFamily=Verdana;fontSize=10;" parent="1" edge="1">
          <mxGeometry relative="1" as="geometry">
            <mxPoint x="696.9688379673075" y="714.5" as="sourcePoint" />
          </mxGeometry>
        </mxCell>
        <mxCell id="6e0c8c40b5770093-71" style="edgeStyle=elbowEdgeStyle;rounded=0;html=1;dashed=1;labelBackgroundColor=none;startFill=0;endArrow=open;endFill=0;endSize=10;fontFamily=Verdana;fontSize=10;elbow=vertical;" parent="1" edge="1">
          <mxGeometry relative="1" as="geometry">
            <mxPoint x="1045.5" y="593.7777777777778" as="targetPoint" />
          </mxGeometry>
        </mxCell>
        <mxCell id="6e0c8c40b5770093-68" style="edgeStyle=elbowEdgeStyle;rounded=0;html=1;entryX=0.628;entryY=0.26;entryPerimeter=0;dashed=1;labelBackgroundColor=none;startFill=0;endArrow=open;endFill=0;endSize=10;fontFamily=Verdana;fontSize=10;" parent="1" edge="1">
          <mxGeometry relative="1" as="geometry">
            <mxPoint x="658" y="904.5" as="sourcePoint" />
          </mxGeometry>
        </mxCell>
        <mxCell id="6e0c8c40b5770093-69" style="edgeStyle=elbowEdgeStyle;rounded=0;html=1;entryX=0.643;entryY=0.246;entryPerimeter=0;dashed=1;labelBackgroundColor=none;startFill=0;endArrow=open;endFill=0;endSize=10;fontFamily=Verdana;fontSize=10;" parent="1" edge="1">
          <mxGeometry relative="1" as="geometry">
            <mxPoint x="826.8888888888887" y="904.5" as="sourcePoint" />
          </mxGeometry>
        </mxCell>
        <mxCell id="6e0c8c40b5770093-70" style="edgeStyle=none;rounded=0;html=1;dashed=1;labelBackgroundColor=none;startFill=0;endArrow=open;endFill=0;endSize=10;fontFamily=Verdana;fontSize=10;exitX=1.003;exitY=0.363;exitPerimeter=0;" parent="1" edge="1">
          <mxGeometry relative="1" as="geometry">
            <mxPoint x="1045.5" y="655.0341892819083" as="targetPoint" />
          </mxGeometry>
        </mxCell>
        <mxCell id="6e0c8c40b5770093-60" style="rounded=0;html=1;entryX=0.452;entryY=0.1;entryPerimeter=0;dashed=1;labelBackgroundColor=none;startFill=0;endArrow=open;endFill=0;endSize=10;fontFamily=Verdana;fontSize=10;" parent="1" edge="1">
          <mxGeometry relative="1" as="geometry">
            <mxPoint x="581.8287769784174" y="424.5" as="sourcePoint" />
          </mxGeometry>
        </mxCell>
        <mxCell id="6e0c8c40b5770093-61" style="edgeStyle=none;rounded=0;html=1;entryX=0.69;entryY=0.102;entryPerimeter=0;dashed=1;labelBackgroundColor=none;startFill=0;endArrow=open;endFill=0;endSize=10;fontFamily=Verdana;fontSize=10;" parent="1" edge="1">
          <mxGeometry relative="1" as="geometry">
            <mxPoint x="811.2746530853265" y="428.5" as="sourcePoint" />
          </mxGeometry>
        </mxCell>
        <mxCell id="6e0c8c40b5770093-62" style="edgeStyle=none;rounded=0;html=1;dashed=1;labelBackgroundColor=none;startFill=0;endArrow=open;endFill=0;endSize=10;fontFamily=Verdana;fontSize=10;exitX=1.002;exitY=0.668;exitPerimeter=0;" parent="1" edge="1">
          <mxGeometry relative="1" as="geometry">
            <mxPoint x="1045.5" y="446.2804978399504" as="targetPoint" />
          </mxGeometry>
        </mxCell>
        <mxCell id="6e0c8c40b5770093-63" style="edgeStyle=orthogonalEdgeStyle;rounded=0;html=1;dashed=1;labelBackgroundColor=none;startFill=0;endArrow=open;endFill=0;endSize=10;fontFamily=Verdana;fontSize=10;" parent="1" edge="1">
          <mxGeometry relative="1" as="geometry">
            <Array as="points">
              <mxPoint x="665.5" y="359.5" />
              <mxPoint x="665.5" y="464.5" />
            </Array>
            <mxPoint x="1045.5" y="464.44444444444434" as="targetPoint" />
          </mxGeometry>
        </mxCell>
        <mxCell id="6e0c8c40b5770093-73" value="&amp;lt;&amp;lt;Maleick Personal Blog | Home&lt;span style=&quot;background-color: initial;&quot;&gt;&amp;gt;&amp;gt;&lt;/span&gt;" style="text;html=1;align=left;verticalAlign=top;spacingTop=-4;fontSize=10;fontFamily=Verdana" parent="1" vertex="1">
          <mxGeometry x="-100" y="40" width="130" height="20" as="geometry" />
        </mxCell>
        <mxCell id="7eO9vxlaF-TovGwDMS8K-38" value="" style="edgeStyle=orthogonalEdgeStyle;rounded=0;orthogonalLoop=1;jettySize=auto;html=1;" parent="1" source="7eO9vxlaF-TovGwDMS8K-8" target="7eO9vxlaF-TovGwDMS8K-37" edge="1">
          <mxGeometry relative="1" as="geometry" />
        </mxCell>
        <mxCell id="7eO9vxlaF-TovGwDMS8K-8" value="Professional" style="shape=folder;fontStyle=1;spacingTop=10;tabWidth=50;tabHeight=17;tabPosition=left;html=1;rounded=0;shadow=0;comic=0;labelBackgroundColor=none;strokeWidth=1;fontFamily=Verdana;fontSize=10;align=center;" parent="1" vertex="1">
          <mxGeometry x="510" y="310" width="130" height="70" as="geometry" />
        </mxCell>
        <mxCell id="7eO9vxlaF-TovGwDMS8K-20" value="" style="edgeStyle=orthogonalEdgeStyle;rounded=0;orthogonalLoop=1;jettySize=auto;html=1;" parent="1" source="7eO9vxlaF-TovGwDMS8K-10" target="7eO9vxlaF-TovGwDMS8K-19" edge="1">
          <mxGeometry relative="1" as="geometry" />
        </mxCell>
        <mxCell id="7eO9vxlaF-TovGwDMS8K-23" value="" style="edgeStyle=orthogonalEdgeStyle;rounded=0;orthogonalLoop=1;jettySize=auto;html=1;" parent="1" source="7eO9vxlaF-TovGwDMS8K-10" target="7eO9vxlaF-TovGwDMS8K-21" edge="1">
          <mxGeometry relative="1" as="geometry">
            <mxPoint x="560" y="440" as="targetPoint" />
            <Array as="points">
              <mxPoint x="217" y="430" />
              <mxPoint x="378" y="430" />
            </Array>
          </mxGeometry>
        </mxCell>
        <mxCell id="7eO9vxlaF-TovGwDMS8K-25" value="" style="edgeStyle=orthogonalEdgeStyle;rounded=0;orthogonalLoop=1;jettySize=auto;html=1;" parent="1" source="7eO9vxlaF-TovGwDMS8K-10" target="7eO9vxlaF-TovGwDMS8K-24" edge="1">
          <mxGeometry relative="1" as="geometry">
            <Array as="points">
              <mxPoint x="217" y="430" />
              <mxPoint x="65" y="430" />
            </Array>
          </mxGeometry>
        </mxCell>
        <mxCell id="7eO9vxlaF-TovGwDMS8K-10" value="Home" style="shape=folder;fontStyle=1;spacingTop=10;tabWidth=50;tabHeight=17;tabPosition=left;html=1;rounded=0;shadow=0;comic=0;labelBackgroundColor=none;strokeWidth=1;fontFamily=Verdana;fontSize=10;align=center;" parent="1" vertex="1">
          <mxGeometry x="151.5" y="310" width="130" height="70" as="geometry" />
        </mxCell>
        <mxCell id="7eO9vxlaF-TovGwDMS8K-40" value="" style="edgeStyle=orthogonalEdgeStyle;rounded=0;orthogonalLoop=1;jettySize=auto;html=1;" parent="1" source="7eO9vxlaF-TovGwDMS8K-15" target="7eO9vxlaF-TovGwDMS8K-39" edge="1">
          <mxGeometry relative="1" as="geometry" />
        </mxCell>
        <mxCell id="7eO9vxlaF-TovGwDMS8K-15" value="Contact" style="shape=folder;fontStyle=1;spacingTop=10;tabWidth=50;tabHeight=17;tabPosition=left;html=1;rounded=0;shadow=0;comic=0;labelBackgroundColor=none;strokeWidth=1;fontFamily=Verdana;fontSize=10;align=center;" parent="1" vertex="1">
          <mxGeometry x="675.5" y="310" width="130" height="70" as="geometry" />
        </mxCell>
        <mxCell id="7eO9vxlaF-TovGwDMS8K-61" value="" style="edgeStyle=orthogonalEdgeStyle;rounded=0;orthogonalLoop=1;jettySize=auto;html=1;" parent="1" source="7eO9vxlaF-TovGwDMS8K-17" target="7eO9vxlaF-TovGwDMS8K-60" edge="1">
          <mxGeometry relative="1" as="geometry" />
        </mxCell>
        <mxCell id="7eO9vxlaF-TovGwDMS8K-17" value="Personal Development" style="shape=folder;fontStyle=1;spacingTop=10;tabWidth=50;tabHeight=17;tabPosition=left;html=1;rounded=0;shadow=0;comic=0;labelBackgroundColor=none;strokeWidth=1;fontFamily=Verdana;fontSize=10;align=center;" parent="1" vertex="1">
          <mxGeometry x="865" y="310" width="130" height="70" as="geometry" />
        </mxCell>
        <mxCell id="7eO9vxlaF-TovGwDMS8K-34" value="" style="edgeStyle=orthogonalEdgeStyle;rounded=0;orthogonalLoop=1;jettySize=auto;html=1;" parent="1" source="7eO9vxlaF-TovGwDMS8K-19" target="7eO9vxlaF-TovGwDMS8K-33" edge="1">
          <mxGeometry relative="1" as="geometry" />
        </mxCell>
        <mxCell id="7eO9vxlaF-TovGwDMS8K-19" value="Personal" style="shape=folder;fontStyle=1;spacingTop=10;tabWidth=50;tabHeight=17;tabPosition=left;html=1;rounded=0;shadow=0;comic=0;labelBackgroundColor=none;strokeWidth=1;fontFamily=Verdana;fontSize=10;align=center;" parent="1" vertex="1">
          <mxGeometry x="151.5" y="460" width="130" height="70" as="geometry" />
        </mxCell>
        <mxCell id="7eO9vxlaF-TovGwDMS8K-36" value="" style="edgeStyle=orthogonalEdgeStyle;rounded=0;orthogonalLoop=1;jettySize=auto;html=1;" parent="1" source="7eO9vxlaF-TovGwDMS8K-21" target="7eO9vxlaF-TovGwDMS8K-35" edge="1">
          <mxGeometry relative="1" as="geometry" />
        </mxCell>
        <mxCell id="7eO9vxlaF-TovGwDMS8K-21" value="Hobbies" style="shape=folder;fontStyle=1;spacingTop=10;tabWidth=50;tabHeight=17;tabPosition=left;html=1;rounded=0;shadow=0;comic=0;labelBackgroundColor=none;strokeWidth=1;fontFamily=Verdana;fontSize=10;align=center;" parent="1" vertex="1">
          <mxGeometry x="312.5" y="460" width="130" height="70" as="geometry" />
        </mxCell>
        <mxCell id="7eO9vxlaF-TovGwDMS8K-32" value="" style="edgeStyle=orthogonalEdgeStyle;rounded=0;orthogonalLoop=1;jettySize=auto;html=1;" parent="1" source="7eO9vxlaF-TovGwDMS8K-24" target="7eO9vxlaF-TovGwDMS8K-31" edge="1">
          <mxGeometry relative="1" as="geometry" />
        </mxCell>
        <mxCell id="7eO9vxlaF-TovGwDMS8K-24" value="Interests" style="shape=folder;fontStyle=1;spacingTop=10;tabWidth=50;tabHeight=17;tabPosition=left;html=1;rounded=0;shadow=0;comic=0;labelBackgroundColor=none;strokeWidth=1;fontFamily=Verdana;fontSize=10;align=center;" parent="1" vertex="1">
          <mxGeometry y="460" width="130" height="70" as="geometry" />
        </mxCell>
        <mxCell id="7eO9vxlaF-TovGwDMS8K-2" value="1.0" style="text;align=center;fontStyle=1;verticalAlign=middle;spacingLeft=3;spacingRight=3;strokeColor=none;rotatable=0;points=[[0,0.5],[1,0.5]];portConstraint=eastwest;html=1;" parent="1" vertex="1">
          <mxGeometry x="160" y="310" width="30" height="20" as="geometry" />
        </mxCell>
        <mxCell id="7eO9vxlaF-TovGwDMS8K-28" value="1.1" style="text;align=center;fontStyle=1;verticalAlign=middle;spacingLeft=3;spacingRight=3;strokeColor=none;rotatable=0;points=[[0,0.5],[1,0.5]];portConstraint=eastwest;html=1;" parent="1" vertex="1">
          <mxGeometry x="520" y="310" width="30" height="20" as="geometry" />
        </mxCell>
        <mxCell id="7eO9vxlaF-TovGwDMS8K-29" value="1.2" style="text;align=center;fontStyle=1;verticalAlign=middle;spacingLeft=3;spacingRight=3;strokeColor=none;rotatable=0;points=[[0,0.5],[1,0.5]];portConstraint=eastwest;html=1;" parent="1" vertex="1">
          <mxGeometry x="690" y="310" width="30" height="20" as="geometry" />
        </mxCell>
        <mxCell id="7eO9vxlaF-TovGwDMS8K-30" value="1.3" style="text;align=center;fontStyle=1;verticalAlign=middle;spacingLeft=3;spacingRight=3;strokeColor=none;rotatable=0;points=[[0,0.5],[1,0.5]];portConstraint=eastwest;html=1;" parent="1" vertex="1">
          <mxGeometry x="870" y="300" width="30" height="20" as="geometry" />
        </mxCell>
        <mxCell id="7eO9vxlaF-TovGwDMS8K-86" value="" style="edgeStyle=orthogonalEdgeStyle;rounded=0;orthogonalLoop=1;jettySize=auto;html=1;" parent="1" source="7eO9vxlaF-TovGwDMS8K-31" target="7eO9vxlaF-TovGwDMS8K-83" edge="1">
          <mxGeometry relative="1" as="geometry">
            <mxPoint x="65" y="795" as="targetPoint" />
          </mxGeometry>
        </mxCell>
        <mxCell id="7eO9vxlaF-TovGwDMS8K-31" value="Show Interests" style="shape=folder;fontStyle=1;spacingTop=10;tabWidth=50;tabHeight=17;tabPosition=left;html=1;rounded=0;shadow=0;comic=0;labelBackgroundColor=none;strokeWidth=1;fontFamily=Verdana;fontSize=10;align=center;" parent="1" vertex="1">
          <mxGeometry y="610" width="130" height="70" as="geometry" />
        </mxCell>
        <mxCell id="7eO9vxlaF-TovGwDMS8K-84" value="" style="edgeStyle=orthogonalEdgeStyle;rounded=0;orthogonalLoop=1;jettySize=auto;html=1;" parent="1" source="7eO9vxlaF-TovGwDMS8K-33" target="7eO9vxlaF-TovGwDMS8K-83" edge="1">
          <mxGeometry relative="1" as="geometry">
            <Array as="points">
              <mxPoint x="216" y="810" />
            </Array>
          </mxGeometry>
        </mxCell>
        <mxCell id="7eO9vxlaF-TovGwDMS8K-33" value="Show Personal" style="shape=folder;fontStyle=1;spacingTop=10;tabWidth=50;tabHeight=17;tabPosition=left;html=1;rounded=0;shadow=0;comic=0;labelBackgroundColor=none;strokeWidth=1;fontFamily=Verdana;fontSize=10;align=center;" parent="1" vertex="1">
          <mxGeometry x="151.5" y="610" width="130" height="70" as="geometry" />
        </mxCell>
        <mxCell id="7eO9vxlaF-TovGwDMS8K-88" value="" style="edgeStyle=orthogonalEdgeStyle;rounded=0;orthogonalLoop=1;jettySize=auto;html=1;" parent="1" source="7eO9vxlaF-TovGwDMS8K-35" target="7eO9vxlaF-TovGwDMS8K-83" edge="1">
          <mxGeometry relative="1" as="geometry">
            <mxPoint x="377.5" y="795" as="targetPoint" />
            <Array as="points">
              <mxPoint x="378" y="810" />
              <mxPoint x="65" y="810" />
            </Array>
          </mxGeometry>
        </mxCell>
        <mxCell id="7eO9vxlaF-TovGwDMS8K-35" value="Show Hobbies" style="shape=folder;fontStyle=1;spacingTop=10;tabWidth=50;tabHeight=17;tabPosition=left;html=1;rounded=0;shadow=0;comic=0;labelBackgroundColor=none;strokeWidth=1;fontFamily=Verdana;fontSize=10;align=center;" parent="1" vertex="1">
          <mxGeometry x="312.5" y="610" width="130" height="70" as="geometry" />
        </mxCell>
        <mxCell id="7eO9vxlaF-TovGwDMS8K-42" value="" style="edgeStyle=orthogonalEdgeStyle;rounded=0;orthogonalLoop=1;jettySize=auto;html=1;" parent="1" source="7eO9vxlaF-TovGwDMS8K-37" target="7eO9vxlaF-TovGwDMS8K-41" edge="1">
          <mxGeometry relative="1" as="geometry" />
        </mxCell>
        <mxCell id="7eO9vxlaF-TovGwDMS8K-37" value="Show Resume" style="shape=folder;fontStyle=1;spacingTop=10;tabWidth=50;tabHeight=17;tabPosition=left;html=1;rounded=0;shadow=0;comic=0;labelBackgroundColor=none;strokeWidth=1;fontFamily=Verdana;fontSize=10;align=center;" parent="1" vertex="1">
          <mxGeometry x="510" y="460" width="130" height="70" as="geometry" />
        </mxCell>
        <mxCell id="7eO9vxlaF-TovGwDMS8K-92" value="" style="edgeStyle=orthogonalEdgeStyle;rounded=0;orthogonalLoop=1;jettySize=auto;html=1;" parent="1" source="7eO9vxlaF-TovGwDMS8K-39" target="7eO9vxlaF-TovGwDMS8K-83" edge="1">
          <mxGeometry relative="1" as="geometry">
            <mxPoint x="740.5" y="645" as="targetPoint" />
            <Array as="points">
              <mxPoint x="740" y="810" />
              <mxPoint x="65" y="810" />
            </Array>
          </mxGeometry>
        </mxCell>
        <mxCell id="7eO9vxlaF-TovGwDMS8K-39" value="Show Contact Info" style="shape=folder;fontStyle=1;spacingTop=10;tabWidth=50;tabHeight=17;tabPosition=left;html=1;rounded=0;shadow=0;comic=0;labelBackgroundColor=none;strokeWidth=1;fontFamily=Verdana;fontSize=10;align=center;" parent="1" vertex="1">
          <mxGeometry x="675.5" y="460" width="130" height="70" as="geometry" />
        </mxCell>
        <mxCell id="7eO9vxlaF-TovGwDMS8K-74" value="" style="edgeStyle=orthogonalEdgeStyle;rounded=0;orthogonalLoop=1;jettySize=auto;html=1;entryX=0;entryY=0;entryDx=130;entryDy=43.5;entryPerimeter=0;" parent="1" source="7eO9vxlaF-TovGwDMS8K-41" target="7eO9vxlaF-TovGwDMS8K-37" edge="1">
          <mxGeometry relative="1" as="geometry">
            <mxPoint x="724.9999999999998" y="645" as="targetPoint" />
            <Array as="points">
              <mxPoint x="660" y="660" />
              <mxPoint x="660" y="504" />
            </Array>
          </mxGeometry>
        </mxCell>
        <mxCell id="7eO9vxlaF-TovGwDMS8K-90" value="" style="edgeStyle=orthogonalEdgeStyle;rounded=0;orthogonalLoop=1;jettySize=auto;html=1;" parent="1" source="7eO9vxlaF-TovGwDMS8K-41" target="7eO9vxlaF-TovGwDMS8K-83" edge="1">
          <mxGeometry relative="1" as="geometry">
            <mxPoint x="575" y="795" as="targetPoint" />
            <Array as="points">
              <mxPoint x="575" y="810" />
              <mxPoint x="65" y="810" />
            </Array>
          </mxGeometry>
        </mxCell>
        <mxCell id="7eO9vxlaF-TovGwDMS8K-41" value="Top button" style="shape=folder;fontStyle=1;spacingTop=10;tabWidth=50;tabHeight=17;tabPosition=left;html=1;rounded=0;shadow=0;comic=0;labelBackgroundColor=none;strokeWidth=1;fontFamily=Verdana;fontSize=10;align=center;" parent="1" vertex="1">
          <mxGeometry x="510" y="610" width="130" height="70" as="geometry" />
        </mxCell>
        <mxCell id="7eO9vxlaF-TovGwDMS8K-94" value="" style="edgeStyle=orthogonalEdgeStyle;rounded=0;orthogonalLoop=1;jettySize=auto;html=1;" parent="1" source="7eO9vxlaF-TovGwDMS8K-60" target="7eO9vxlaF-TovGwDMS8K-83" edge="1">
          <mxGeometry relative="1" as="geometry">
            <mxPoint x="930" y="645" as="targetPoint" />
            <Array as="points">
              <mxPoint x="930" y="810" />
              <mxPoint x="65" y="810" />
            </Array>
          </mxGeometry>
        </mxCell>
        <mxCell id="7eO9vxlaF-TovGwDMS8K-60" value="Show Personal Development" style="shape=folder;fontStyle=1;spacingTop=10;tabWidth=50;tabHeight=17;tabPosition=left;html=1;rounded=0;shadow=0;comic=0;labelBackgroundColor=none;strokeWidth=1;fontFamily=Verdana;fontSize=10;align=center;" parent="1" vertex="1">
          <mxGeometry x="840" y="460" width="180" height="70" as="geometry" />
        </mxCell>
        <mxCell id="7eO9vxlaF-TovGwDMS8K-62" value="2.0" style="text;align=center;fontStyle=1;verticalAlign=middle;spacingLeft=3;spacingRight=3;strokeColor=none;rotatable=0;points=[[0,0.5],[1,0.5]];portConstraint=eastwest;html=1;" parent="1" vertex="1">
          <mxGeometry x="-20" y="456" width="80" height="26" as="geometry" />
        </mxCell>
        <mxCell id="7eO9vxlaF-TovGwDMS8K-63" value="2.1" style="text;align=center;fontStyle=1;verticalAlign=middle;spacingLeft=3;spacingRight=3;strokeColor=none;rotatable=0;points=[[0,0.5],[1,0.5]];portConstraint=eastwest;html=1;" parent="1" vertex="1">
          <mxGeometry x="135" y="456" width="80" height="26" as="geometry" />
        </mxCell>
        <mxCell id="7eO9vxlaF-TovGwDMS8K-64" value="2.2" style="text;align=center;fontStyle=1;verticalAlign=middle;spacingLeft=3;spacingRight=3;strokeColor=none;rotatable=0;points=[[0,0.5],[1,0.5]];portConstraint=eastwest;html=1;" parent="1" vertex="1">
          <mxGeometry x="290" y="456" width="80" height="26" as="geometry" />
        </mxCell>
        <mxCell id="7eO9vxlaF-TovGwDMS8K-65" value="3.0" style="text;align=center;fontStyle=1;verticalAlign=middle;spacingLeft=3;spacingRight=3;strokeColor=none;rotatable=0;points=[[0,0.5],[1,0.5]];portConstraint=eastwest;html=1;" parent="1" vertex="1">
          <mxGeometry x="-20" y="606" width="80" height="26" as="geometry" />
        </mxCell>
        <mxCell id="7eO9vxlaF-TovGwDMS8K-66" value="3.2" style="text;align=center;fontStyle=1;verticalAlign=middle;spacingLeft=3;spacingRight=3;strokeColor=none;rotatable=0;points=[[0,0.5],[1,0.5]];portConstraint=eastwest;html=1;" parent="1" vertex="1">
          <mxGeometry x="290" y="606" width="80" height="26" as="geometry" />
        </mxCell>
        <mxCell id="7eO9vxlaF-TovGwDMS8K-67" value="3.1" style="text;align=center;fontStyle=1;verticalAlign=middle;spacingLeft=3;spacingRight=3;strokeColor=none;rotatable=0;points=[[0,0.5],[1,0.5]];portConstraint=eastwest;html=1;" parent="1" vertex="1">
          <mxGeometry x="130" y="606" width="80" height="26" as="geometry" />
        </mxCell>
        <mxCell id="7eO9vxlaF-TovGwDMS8K-68" value="4.0" style="text;align=center;fontStyle=1;verticalAlign=middle;spacingLeft=3;spacingRight=3;strokeColor=none;rotatable=0;points=[[0,0.5],[1,0.5]];portConstraint=eastwest;html=1;" parent="1" vertex="1">
          <mxGeometry x="495" y="456" width="80" height="26" as="geometry" />
        </mxCell>
        <mxCell id="7eO9vxlaF-TovGwDMS8K-69" value="7.0" style="text;align=center;fontStyle=1;verticalAlign=middle;spacingLeft=3;spacingRight=3;strokeColor=none;rotatable=0;points=[[0,0.5],[1,0.5]];portConstraint=eastwest;html=1;" parent="1" vertex="1">
          <mxGeometry x="827" y="456" width="80" height="26" as="geometry" />
        </mxCell>
        <mxCell id="7eO9vxlaF-TovGwDMS8K-70" value="6.0" style="text;align=center;fontStyle=1;verticalAlign=middle;spacingLeft=3;spacingRight=3;strokeColor=none;rotatable=0;points=[[0,0.5],[1,0.5]];portConstraint=eastwest;html=1;" parent="1" vertex="1">
          <mxGeometry x="660" y="456" width="80" height="26" as="geometry" />
        </mxCell>
        <mxCell id="7eO9vxlaF-TovGwDMS8K-71" value="5.0" style="text;align=center;fontStyle=1;verticalAlign=middle;spacingLeft=3;spacingRight=3;strokeColor=none;rotatable=0;points=[[0,0.5],[1,0.5]];portConstraint=eastwest;html=1;" parent="1" vertex="1">
          <mxGeometry x="495" y="606" width="80" height="26" as="geometry" />
        </mxCell>
        <mxCell id="7eO9vxlaF-TovGwDMS8K-100" value="" style="edgeStyle=orthogonalEdgeStyle;rounded=0;orthogonalLoop=1;jettySize=auto;html=1;strokeColor=#FF0000;" parent="1" source="7eO9vxlaF-TovGwDMS8K-79" target="7eO9vxlaF-TovGwDMS8K-17" edge="1">
          <mxGeometry relative="1" as="geometry">
            <mxPoint x="765" y="204.99999999999977" as="targetPoint" />
            <Array as="points">
              <mxPoint x="655" y="250" />
              <mxPoint x="930" y="250" />
            </Array>
          </mxGeometry>
        </mxCell>
        <mxCell id="7eO9vxlaF-TovGwDMS8K-102" value="" style="edgeStyle=orthogonalEdgeStyle;rounded=0;orthogonalLoop=1;jettySize=auto;html=1;strokeColor=#FF0000;" parent="1" source="7eO9vxlaF-TovGwDMS8K-79" target="7eO9vxlaF-TovGwDMS8K-15" edge="1">
          <mxGeometry relative="1" as="geometry">
            <mxPoint x="725" y="204.99999999999977" as="targetPoint" />
            <Array as="points">
              <mxPoint x="655" y="250" />
              <mxPoint x="740" y="250" />
            </Array>
          </mxGeometry>
        </mxCell>
        <mxCell id="7eO9vxlaF-TovGwDMS8K-104" value="" style="edgeStyle=orthogonalEdgeStyle;rounded=0;orthogonalLoop=1;jettySize=auto;html=1;strokeColor=#FF0000;" parent="1" source="7eO9vxlaF-TovGwDMS8K-79" target="7eO9vxlaF-TovGwDMS8K-8" edge="1">
          <mxGeometry relative="1" as="geometry">
            <mxPoint x="725" y="204.99999999999977" as="targetPoint" />
            <Array as="points">
              <mxPoint x="650" y="250" />
              <mxPoint x="575" y="250" />
            </Array>
          </mxGeometry>
        </mxCell>
        <mxCell id="7eO9vxlaF-TovGwDMS8K-79" value="" style="ellipse;html=1;shape=startState;fillColor=#000000;strokeColor=#ff0000;" parent="1" vertex="1">
          <mxGeometry x="640" y="190" width="30" height="30" as="geometry" />
        </mxCell>
        <mxCell id="7eO9vxlaF-TovGwDMS8K-80" value="" style="edgeStyle=orthogonalEdgeStyle;html=1;verticalAlign=bottom;endArrow=open;endSize=8;strokeColor=#ff0000;rounded=0;" parent="1" source="7eO9vxlaF-TovGwDMS8K-79" target="7eO9vxlaF-TovGwDMS8K-10" edge="1">
          <mxGeometry relative="1" as="geometry">
            <mxPoint x="715" y="250" as="targetPoint" />
            <Array as="points">
              <mxPoint x="650" y="250" />
              <mxPoint x="216" y="250" />
            </Array>
          </mxGeometry>
        </mxCell>
        <mxCell id="7eO9vxlaF-TovGwDMS8K-96" value="" style="edgeStyle=orthogonalEdgeStyle;rounded=0;orthogonalLoop=1;jettySize=auto;html=1;entryX=0;entryY=0.5;entryDx=0;entryDy=0;" parent="1" source="7eO9vxlaF-TovGwDMS8K-83" target="7eO9vxlaF-TovGwDMS8K-79" edge="1">
          <mxGeometry relative="1" as="geometry">
            <mxPoint x="-35" y="810" as="targetPoint" />
            <Array as="points">
              <mxPoint x="-50" y="810" />
              <mxPoint x="-50" y="205" />
            </Array>
          </mxGeometry>
        </mxCell>
        <mxCell id="7eO9vxlaF-TovGwDMS8K-83" value="" style="shape=waypoint;sketch=0;size=6;pointerEvents=1;points=[];fillColor=default;resizable=0;rotatable=0;perimeter=centerPerimeter;snapToPoint=1;fontSize=10;fontFamily=Verdana;fontStyle=1;spacingTop=10;rounded=0;shadow=0;comic=0;labelBackgroundColor=none;strokeWidth=1;" parent="1" vertex="1">
          <mxGeometry x="55" y="800" width="20" height="20" as="geometry" />
        </mxCell>
        <mxCell id="7eO9vxlaF-TovGwDMS8K-98" value="" style="shape=umlLifeline;perimeter=lifelinePerimeter;whiteSpace=wrap;html=1;container=1;dropTarget=0;collapsible=0;recursiveResize=0;outlineConnect=0;portConstraint=eastwest;newEdgeStyle={&quot;edgeStyle&quot;:&quot;elbowEdgeStyle&quot;,&quot;elbow&quot;:&quot;vertical&quot;,&quot;curved&quot;:0,&quot;rounded&quot;:0};participant=umlActor;" parent="1" vertex="1">
          <mxGeometry x="645" y="30" width="20" height="160" as="geometry" />
        </mxCell>
        <mxCell id="7eO9vxlaF-TovGwDMS8K-105" value="User" style="text;align=center;fontStyle=1;verticalAlign=middle;spacingLeft=3;spacingRight=3;strokeColor=none;rotatable=0;points=[[0,0.5],[1,0.5]];portConstraint=eastwest;html=1;" parent="1" vertex="1">
          <mxGeometry x="650" y="40" width="80" height="26" as="geometry" />
        </mxCell>
        <mxCell id="yKc5TfCQ2p9O5emuo_7n-1" value="&lt;ul&gt;&lt;li&gt;&lt;span style=&quot;background-color: initial;&quot;&gt;Breif description of the website&lt;/span&gt;&lt;/li&gt;&lt;/ul&gt;" style="text;whiteSpace=wrap;html=1;" vertex="1" parent="1">
          <mxGeometry x="-20" y="326" width="200" height="54" as="geometry" />
        </mxCell>
        <mxCell id="yKc5TfCQ2p9O5emuo_7n-3" value="" style="endArrow=classic;startArrow=classic;html=1;rounded=0;" edge="1" parent="1" source="7eO9vxlaF-TovGwDMS8K-8" target="7eO9vxlaF-TovGwDMS8K-15">
          <mxGeometry width="50" height="50" relative="1" as="geometry">
            <mxPoint x="470" y="530" as="sourcePoint" />
            <mxPoint x="520" y="480" as="targetPoint" />
          </mxGeometry>
        </mxCell>
        <mxCell id="yKc5TfCQ2p9O5emuo_7n-4" value="" style="endArrow=classic;startArrow=classic;html=1;rounded=0;" edge="1" parent="1" source="7eO9vxlaF-TovGwDMS8K-10" target="7eO9vxlaF-TovGwDMS8K-8">
          <mxGeometry width="50" height="50" relative="1" as="geometry">
            <mxPoint x="470" y="530" as="sourcePoint" />
            <mxPoint x="520" y="480" as="targetPoint" />
          </mxGeometry>
        </mxCell>
        <mxCell id="yKc5TfCQ2p9O5emuo_7n-5" value="" style="endArrow=classic;startArrow=classic;html=1;rounded=0;" edge="1" parent="1" source="7eO9vxlaF-TovGwDMS8K-15" target="7eO9vxlaF-TovGwDMS8K-17">
          <mxGeometry width="50" height="50" relative="1" as="geometry">
            <mxPoint x="410" y="530" as="sourcePoint" />
            <mxPoint x="460" y="480" as="targetPoint" />
          </mxGeometry>
        </mxCell>
        <mxCell id="yKc5TfCQ2p9O5emuo_7n-6" value="&lt;ul&gt;&lt;li&gt;Click Button()&lt;/li&gt;&lt;/ul&gt;" style="text;html=1;strokeColor=none;fillColor=none;spacing=5;spacingTop=-20;whiteSpace=wrap;overflow=hidden;rounded=0;" vertex="1" parent="1">
          <mxGeometry x="135" y="360" width="140" height="20" as="geometry" />
        </mxCell>
        <mxCell id="yKc5TfCQ2p9O5emuo_7n-7" value="&lt;ul&gt;&lt;li&gt;Click Button()&lt;/li&gt;&lt;/ul&gt;" style="text;html=1;strokeColor=none;fillColor=none;spacing=5;spacingTop=-20;whiteSpace=wrap;overflow=hidden;rounded=0;" vertex="1" parent="1">
          <mxGeometry x="-10" y="510" width="140" height="20" as="geometry" />
        </mxCell>
        <mxCell id="yKc5TfCQ2p9O5emuo_7n-8" value="&lt;ul&gt;&lt;li&gt;Click Button()&lt;/li&gt;&lt;/ul&gt;" style="text;html=1;strokeColor=none;fillColor=none;spacing=5;spacingTop=-20;whiteSpace=wrap;overflow=hidden;rounded=0;" vertex="1" parent="1">
          <mxGeometry x="495" y="660" width="140" height="20" as="geometry" />
        </mxCell>
        <mxCell id="yKc5TfCQ2p9O5emuo_7n-9" value="&lt;ul&gt;&lt;li&gt;Click Button()&lt;/li&gt;&lt;/ul&gt;" style="text;html=1;strokeColor=none;fillColor=none;spacing=5;spacingTop=-20;whiteSpace=wrap;overflow=hidden;rounded=0;" vertex="1" parent="1">
          <mxGeometry x="665.5" y="360" width="140" height="20" as="geometry" />
        </mxCell>
        <mxCell id="yKc5TfCQ2p9O5emuo_7n-10" value="&lt;ul&gt;&lt;li&gt;Click Button()&lt;/li&gt;&lt;/ul&gt;" style="text;html=1;strokeColor=none;fillColor=none;spacing=5;spacingTop=-20;whiteSpace=wrap;overflow=hidden;rounded=0;" vertex="1" parent="1">
          <mxGeometry x="510" y="360" width="130" height="20" as="geometry" />
        </mxCell>
        <mxCell id="yKc5TfCQ2p9O5emuo_7n-11" value="&lt;ul&gt;&lt;li&gt;Click Button()&lt;/li&gt;&lt;/ul&gt;" style="text;html=1;strokeColor=none;fillColor=none;spacing=5;spacingTop=-20;whiteSpace=wrap;overflow=hidden;rounded=0;" vertex="1" parent="1">
          <mxGeometry x="302.5" y="510" width="140" height="20" as="geometry" />
        </mxCell>
        <mxCell id="yKc5TfCQ2p9O5emuo_7n-12" value="&lt;ul&gt;&lt;li&gt;Click Button()&lt;/li&gt;&lt;/ul&gt;" style="text;html=1;strokeColor=none;fillColor=none;spacing=5;spacingTop=-20;whiteSpace=wrap;overflow=hidden;rounded=0;" vertex="1" parent="1">
          <mxGeometry x="141.5" y="510" width="140" height="20" as="geometry" />
        </mxCell>
        <mxCell id="yKc5TfCQ2p9O5emuo_7n-13" value="&lt;ul&gt;&lt;li&gt;Click Button()&lt;/li&gt;&lt;/ul&gt;" style="text;html=1;strokeColor=none;fillColor=none;spacing=5;spacingTop=-20;whiteSpace=wrap;overflow=hidden;rounded=0;" vertex="1" parent="1">
          <mxGeometry x="850" y="360" width="140" height="20" as="geometry" />
        </mxCell>
        <mxCell id="yKc5TfCQ2p9O5emuo_7n-14" value="" style="endArrow=classic;startArrow=classic;html=1;rounded=0;" edge="1" parent="1" source="7eO9vxlaF-TovGwDMS8K-31" target="7eO9vxlaF-TovGwDMS8K-33">
          <mxGeometry width="50" height="50" relative="1" as="geometry">
            <mxPoint x="460" y="610" as="sourcePoint" />
            <mxPoint x="510" y="560" as="targetPoint" />
          </mxGeometry>
        </mxCell>
        <mxCell id="yKc5TfCQ2p9O5emuo_7n-15" value="" style="endArrow=classic;startArrow=classic;html=1;rounded=0;" edge="1" parent="1" source="7eO9vxlaF-TovGwDMS8K-33" target="7eO9vxlaF-TovGwDMS8K-35">
          <mxGeometry width="50" height="50" relative="1" as="geometry">
            <mxPoint x="460" y="610" as="sourcePoint" />
            <mxPoint x="510" y="560" as="targetPoint" />
          </mxGeometry>
        </mxCell>
      </root>
    </mxGraphModel>
  </diagram>
</mxfile>
